<svg xmlns="http://www.w3.org/2000/svg" width="64" height="64" viewBox="0 0 64 64" fill="none">
  <defs>
    <radialGradient id="g_grape" cx="0.32" cy="0.26" r="0.75">
      <stop offset="0" stop-color="#ffffff" stop-opacity="0.55" />
      <stop offset="0.34" stop-color="#b78aff" />
      <stop offset="1" stop-color="#7e46d0" />
    </radialGradient>
  </defs>
  <ellipse cx="32" cy="37" rx="21" ry="20" fill="url(#g_grape)" />
  <path d="M30 15c4-4 8-4 13 0" stroke="#6f3f24" stroke-width="3" stroke-linecap="round" />
  <path d="M36 13c7-4 13-2 17 4-7 1-12 0-17-1z" fill="#61bd70" />
  <ellipse cx="24" cy="28" rx="4" ry="3" fill="#ffffff" fill-opacity="0.42" />
  <ellipse cx="26" cy="35" rx="2.2" ry="3" fill="#213247" />
  <ellipse cx="38" cy="35" rx="2.2" ry="3" fill="#213247" />
  <path d="M27 43c2.6 2 7.4 2 10 0" stroke="#b64e5c" stroke-width="2.5" stroke-linecap="round" />
  <path d="M25 49h2M37 49h2" stroke="#213247" stroke-width="2.2" stroke-linecap="round" />
  <path d="M27 50c-1 4-2 5-3 6" stroke="#213247" stroke-width="1.8" stroke-linecap="round" />
  <path d="M37 50c1 4 2 5 3 6" stroke="#213247" stroke-width="1.8" stroke-linecap="round" />
</svg>
