<svg xmlns="http://www.w3.org/2000/svg" width="64" height="64" viewBox="0 0 64 64" fill="none">
  <defs>
    <radialGradient id="g_strawberry" cx="0.35" cy="0.25" r="0.78">
      <stop offset="0" stop-color="#ffd0d4" stop-opacity="0.56" />
      <stop offset="0.35" stop-color="#ff5f75" />
      <stop offset="1" stop-color="#d82345" />
    </radialGradient>
  </defs>
  <path d="M32 12c3 0 6 1 8 4 4 0 7 1 10 3-1 3-3 5-6 7-1 13-6 24-12 29-6-5-11-16-12-29-3-2-5-4-6-7 3-2 6-3 10-3 2-3 5-4 8-4z" fill="url(#g_strawberry)" />
  <path d="M22 14c4 3 8 4 10 4s6-1 10-4" stroke="#49b55a" stroke-width="4" stroke-linecap="round" fill="none" />
  <circle cx="26" cy="28" r="1.7" fill="#fff0a8" />
  <circle cx="37" cy="27" r="1.7" fill="#fff0a8" />
  <circle cx="31" cy="34" r="1.7" fill="#fff0a8" />
  <circle cx="23" cy="38" r="1.7" fill="#fff0a8" />
  <circle cx="41" cy="37" r="1.7" fill="#fff0a8" />
  <ellipse cx="27" cy="31" rx="2.2" ry="2.8" fill="#273247" />
  <ellipse cx="38" cy="31" rx="2.2" ry="2.8" fill="#273247" />
  <path d="M29 40c3 2 6 2 8 0" stroke="#b43143" stroke-width="2.2" stroke-linecap="round" />
  <path d="M26 47c-1 3-2 5-3 6" stroke="#273247" stroke-width="1.7" stroke-linecap="round" />
  <path d="M37 47c1 3 2 5 3 6" stroke="#273247" stroke-width="1.7" stroke-linecap="round" />
</svg>
