<svg xmlns="http://www.w3.org/2000/svg" width="64" height="64" viewBox="0 0 64 64" fill="none">
  <defs>
    <linearGradient id="g_banana" x1="14" y1="14" x2="48" y2="50" gradientUnits="userSpaceOnUse">
      <stop offset="0" stop-color="#fff9a0" />
      <stop offset="0.48" stop-color="#ffdb4c" />
      <stop offset="1" stop-color="#d5a62a" />
    </linearGradient>
  </defs>
  <path d="M15 37c1 10 10 17 20 17 13 0 19-8 21-22 1-8-1-16-4-20-5 10-11 16-18 19-6 2-13 3-19 6z" fill="url(#g_banana)" />
  <path d="M47 13c2-1 4-1 5 1" stroke="#7f5a1a" stroke-width="2.6" stroke-linecap="round" />
  <path d="M18 34c6-3 12-5 17-6 7-2 13-7 18-14" stroke="#f4c83d" stroke-width="6" stroke-linecap="round" fill="none" />
  <ellipse cx="29" cy="31" rx="2.5" ry="3" fill="#273247" />
  <ellipse cx="39" cy="28" rx="2.5" ry="3" fill="#273247" />
  <path d="M30 39c4 2 7 2 10 0" stroke="#b64e5c" stroke-width="2.2" stroke-linecap="round" />
  <path d="M30 46c-1 3-2 5-3 7" stroke="#273247" stroke-width="1.7" stroke-linecap="round" />
  <path d="M39 46c1 3 2 5 3 7" stroke="#273247" stroke-width="1.7" stroke-linecap="round" />
</svg>
