<svg xmlns="http://www.w3.org/2000/svg" width="64" height="64" viewBox="0 0 64 64" fill="none">
  <defs>
    <radialGradient id="g_pineapple" cx="0.4" cy="0.24" r="0.8">
      <stop offset="0" stop-color="#fff7a9" stop-opacity="0.7" />
      <stop offset="0.3" stop-color="#f6c63d" />
      <stop offset="1" stop-color="#d78d17" />
    </radialGradient>
  </defs>
  <path d="M31 7c-3 0-6 4-7 8 4-1 7-1 9 1 2-2 5-2 9-1-1-4-4-8-7-8-1 0-2 1-4 3-2-2-3-3-4-3z" fill="#56be6d" />
  <path d="M18 20c4-8 9-12 14-12s10 4 14 12l4 19c0 9-7 16-18 16s-18-7-18-16l4-19z" fill="url(#g_pineapple)" />
  <path d="M23 24l18 18M41 24L23 42M20 34l26 0M20 42l26 0" stroke="#b76a1e" stroke-width="2.3" stroke-linecap="round" opacity="0.6" />
  <ellipse cx="26" cy="31" rx="3.8" ry="3.1" fill="#fff" fill-opacity="0.48" />
  <ellipse cx="27" cy="36" rx="2.2" ry="3" fill="#273247" />
  <ellipse cx="38" cy="36" rx="2.2" ry="3" fill="#273247" />
  <path d="M28 43c3 2 5 2 8 0" stroke="#b64e5c" stroke-width="2.5" stroke-linecap="round" />
  <path d="M26 49c-1 3-1 4-2 6" stroke="#273247" stroke-width="1.8" stroke-linecap="round" />
  <path d="M38 49c1 3 1 4 2 6" stroke="#273247" stroke-width="1.8" stroke-linecap="round" />
</svg>
