<svg xmlns="http://www.w3.org/2000/svg" width="64" height="64" viewBox="0 0 64 64" fill="none">
  <defs>
    <linearGradient id="g_watermelon" x1="14" y1="17" x2="49" y2="47" gradientUnits="userSpaceOnUse">
      <stop offset="0" stop-color="#8ef08b" />
      <stop offset="0.22" stop-color="#ff5f65" />
      <stop offset="1" stop-color="#d92e42" />
    </linearGradient>
  </defs>
  <path d="M18 42c7-18 17-27 28-27 7 0 13 4 18 11-5 11-13 18-25 22-8 3-14 2-21-6z" fill="url(#g_watermelon)" />
  <path d="M18 42c9-2 17-2 25 0 9 2 16 1 21-6" stroke="#2a7f39" stroke-width="4" stroke-linecap="round" fill="none" />
  <path d="M29 31l2 2M35 28l2 2M40 33l2 2M33 36l2 2" stroke="#59211b" stroke-width="2.2" stroke-linecap="round" />
  <ellipse cx="30" cy="34" rx="2.4" ry="3" fill="#273247" />
  <ellipse cx="40" cy="31" rx="2.4" ry="3" fill="#273247" />
  <path d="M31 41c4 2 8 2 12 0" stroke="#c13048" stroke-width="2.2" stroke-linecap="round" />
  <path d="M28 47c-1 3-1 5-2 7" stroke="#273247" stroke-width="1.7" stroke-linecap="round" />
  <path d="M41 47c1 3 1 5 2 7" stroke="#273247" stroke-width="1.7" stroke-linecap="round" />
</svg>
